<svg xmlns="http://www.w3.org/2000/svg" width="663.772" height="268.621" viewBox="0 0 663.772 268.621">
  <defs>
    <style>
      .cls-1 {
        fill: #ff2a2a;
      }

      .cls-1, .cls-2, .cls-3, .cls-4, .cls-5, .cls-6, .cls-7 {
        stroke: #000;
        stroke-width: 2.557px;
      }

      .cls-2 {
        fill: #f60;
      }

      .cls-3 {
        fill: #fc0;
      }

      .cls-4 {
        fill: #55d400;
      }

      .cls-5 {
        fill: #0cf;
      }

      .cls-6 {
        fill: #ff2ad4;
      }
    </style>
  </defs>
  <g id="Group_22" data-name="Group 22" transform="translate(-349.32 -396.722)">
    <g id="Group_9" data-name="Group 9" transform="translate(50.422 901.792)">
      <path id="path863-3" class="cls-1" d="M664.633-118.976v-81.092H706.4q11.616,0,17.756,1.991a18.859,18.859,0,0,1,9.9,7.412,22.264,22.264,0,0,1,3.761,13.11,22.731,22.731,0,0,1-2.876,11.672,22.568,22.568,0,0,1-7.91,7.91,30.3,30.3,0,0,1-8.8,3.208,24.97,24.97,0,0,1,6.527,2.987,24.676,24.676,0,0,1,3.983,4.259,31.182,31.182,0,0,1,3.54,5.034L744.4-118.975H716.076L702.69-143.757q-2.545-4.812-4.536-6.251a10.514,10.514,0,0,0-6.14-1.881H689.8v32.913ZM689.8-167.211h10.565A37.758,37.758,0,0,0,707-168.317a6.513,6.513,0,0,0,4.038-2.545,7.411,7.411,0,0,0,1.6-4.7,7.452,7.452,0,0,0-2.489-6.029q-2.489-2.1-9.348-2.1H689.8Z" transform="translate(-239.826 -263.135)"/>
      <path id="path863-3-2" class="cls-2" d="M653.357-130.252v-81.092H695.12q11.616,0,17.756,1.991a18.859,18.859,0,0,1,9.9,7.412,22.264,22.264,0,0,1,3.762,13.11,22.731,22.731,0,0,1-2.876,11.672,22.568,22.568,0,0,1-7.91,7.91,30.3,30.3,0,0,1-8.8,3.208,24.972,24.972,0,0,1,6.527,2.987,24.676,24.676,0,0,1,3.983,4.259,31.173,31.173,0,0,1,3.54,5.034l12.114,23.509H704.8l-13.386-24.781q-2.545-4.812-4.536-6.251a10.514,10.514,0,0,0-6.14-1.881h-2.213v32.913Zm25.168-48.235h10.565a37.758,37.758,0,0,0,6.638-1.106,6.512,6.512,0,0,0,4.038-2.545,7.411,7.411,0,0,0,1.6-4.7,7.452,7.452,0,0,0-2.489-6.029q-2.489-2.1-9.348-2.1H678.526Z" transform="translate(-235.188 -258.497)"/>
      <path id="path863-3-2-4" class="cls-3" d="M642.081-141.528V-222.62h41.763q11.616,0,17.756,1.991a18.859,18.859,0,0,1,9.9,7.412,22.264,22.264,0,0,1,3.762,13.11,22.731,22.731,0,0,1-2.876,11.672,22.568,22.568,0,0,1-7.91,7.91,30.3,30.3,0,0,1-8.8,3.208,24.967,24.967,0,0,1,6.527,2.987,24.674,24.674,0,0,1,3.983,4.259,31.173,31.173,0,0,1,3.54,5.034l12.114,23.509H693.524l-13.386-24.781q-2.545-4.812-4.536-6.251a10.514,10.514,0,0,0-6.14-1.881h-2.213v32.913Zm25.168-48.235h10.565a37.76,37.76,0,0,0,6.638-1.106,6.512,6.512,0,0,0,4.038-2.545,7.411,7.411,0,0,0,1.6-4.7,7.452,7.452,0,0,0-2.489-6.029q-2.489-2.1-9.348-2.1H667.25Z" transform="translate(-230.55 -253.859)"/>
      <path id="path863-3-2-4-9" class="cls-4" d="M630.8-152.8V-233.9h41.763q11.616,0,17.756,1.991a18.859,18.859,0,0,1,9.9,7.412,22.264,22.264,0,0,1,3.761,13.11,22.731,22.731,0,0,1-2.876,11.672,22.568,22.568,0,0,1-7.91,7.91,30.3,30.3,0,0,1-8.8,3.208,24.968,24.968,0,0,1,6.527,2.987,24.674,24.674,0,0,1,3.983,4.259,31.177,31.177,0,0,1,3.54,5.034L710.57-152.8H682.248l-13.386-24.781q-2.545-4.812-4.536-6.251a10.514,10.514,0,0,0-6.14-1.881h-2.213V-152.8Zm25.169-48.235h10.565a37.757,37.757,0,0,0,6.638-1.106,6.513,6.513,0,0,0,4.038-2.545,7.411,7.411,0,0,0,1.6-4.7,7.452,7.452,0,0,0-2.489-6.029q-2.489-2.1-9.348-2.1H655.974Z" transform="translate(-225.911 -249.221)"/>
      <path id="path863-3-2-4-9-6" class="cls-5" d="M619.529-164.079v-81.093h41.763q11.616,0,17.756,1.991a18.859,18.859,0,0,1,9.9,7.412,22.264,22.264,0,0,1,3.761,13.11,22.731,22.731,0,0,1-2.876,11.672,22.567,22.567,0,0,1-7.91,7.91,30.3,30.3,0,0,1-8.8,3.208,24.968,24.968,0,0,1,6.527,2.987,24.678,24.678,0,0,1,3.983,4.259,31.17,31.17,0,0,1,3.54,5.034l12.114,23.509H670.972l-13.386-24.781q-2.545-4.812-4.536-6.251a10.514,10.514,0,0,0-6.14-1.881H644.7v32.913ZM644.7-212.314h10.565a37.758,37.758,0,0,0,6.638-1.106,6.513,6.513,0,0,0,4.038-2.545,7.411,7.411,0,0,0,1.6-4.7,7.452,7.452,0,0,0-2.489-6.029q-2.489-2.1-9.348-2.1H644.7Z" transform="translate(-221.273 -244.583)"/>
      <path id="path863-3-2-4-9-6-2" class="cls-6" d="M608.253-175.355v-81.092h41.763q11.616,0,17.756,1.991a18.859,18.859,0,0,1,9.9,7.412,22.264,22.264,0,0,1,3.761,13.11,22.731,22.731,0,0,1-2.876,11.672,22.567,22.567,0,0,1-7.91,7.91,30.3,30.3,0,0,1-8.8,3.208,24.964,24.964,0,0,1,6.527,2.987,24.678,24.678,0,0,1,3.983,4.259,31.171,31.171,0,0,1,3.54,5.034l12.114,23.509H659.7L646.31-200.136q-2.545-4.812-4.536-6.251a10.514,10.514,0,0,0-6.14-1.881h-2.213v32.913Zm25.169-48.235h10.565a37.759,37.759,0,0,0,6.638-1.106,6.513,6.513,0,0,0,4.038-2.545,7.411,7.411,0,0,0,1.6-4.7,7.452,7.452,0,0,0-2.489-6.029q-2.489-2.1-9.348-2.1H633.422Z" transform="translate(-216.635 -239.945)"/>
      <path id="path863-4" class="cls-7" d="M596.977-186.631v-81.092H638.74q11.616,0,17.756,1.991a18.86,18.86,0,0,1,9.9,7.412,22.264,22.264,0,0,1,3.761,13.11,22.731,22.731,0,0,1-2.876,11.672,22.567,22.567,0,0,1-7.91,7.91,30.294,30.294,0,0,1-8.8,3.208,24.968,24.968,0,0,1,6.527,2.987,24.68,24.68,0,0,1,3.983,4.259,31.185,31.185,0,0,1,3.54,5.034l12.114,23.509H648.42l-13.386-24.781q-2.544-4.812-4.536-6.251a10.514,10.514,0,0,0-6.14-1.881h-2.213v32.913Zm25.168-48.235h10.565a37.759,37.759,0,0,0,6.638-1.106,6.512,6.512,0,0,0,4.038-2.545,7.411,7.411,0,0,0,1.6-4.7,7.452,7.452,0,0,0-2.489-6.029q-2.489-2.1-9.348-2.1H622.146Z" transform="translate(-211.997 -235.307)"/>
    </g>
    <g id="Group_10" data-name="Group 10" transform="translate(-110.578 1237.792)">
      <path id="path837-8" class="cls-1" d="M1103.13-769.787h67.153v17.314h-42.04v12.888h39v16.539h-39v15.986H1171.5v18.365h-68.37Z" transform="translate(-420.191 -28.795)"/>
      <path id="path837-8-5" class="cls-2" d="M1091.86-781.063h67.153v17.314h-42.04v12.889h39v16.539h-39v15.986h43.257v18.365h-68.37Z" transform="translate(-415.555 -24.157)"/>
      <path id="path837-8-5-0" class="cls-3" d="M1080.58-792.339h67.153v17.314h-42.04v12.889h39V-745.6h-39v15.986h43.257v18.365h-68.37Z" transform="translate(-410.916 -19.519)"/>
      <path id="path837-8-5-0-2" class="cls-4" d="M1069.31-803.615h67.153V-786.3h-42.04v12.889h39v16.539h-39v15.986h43.257v18.365h-68.37Z" transform="translate(-406.28 -14.88)"/>
      <path id="path837-8-5-0-2-4" class="cls-5" d="M1058.03-814.891h67.153v17.314h-42.04v12.889h39v16.539h-39v15.986H1126.4V-733.8h-68.37Z" transform="translate(-401.64 -10.242)"/>
      <path id="path837-8-5-0-2-4-2" class="cls-6" d="M1046.75-826.167H1113.9v17.314h-42.04v12.889h39v16.539h-39v15.986h43.257v18.365h-68.37Z" transform="translate(-397.001 -5.604)"/>
      <path id="path837-7" class="cls-7" d="M1035.48-837.443h67.153v17.314h-42.04v12.888h39V-790.7h-39v15.986h43.257v18.365h-68.37Z" transform="translate(-392.365 -0.966)"/>
    </g>
    <g id="Group_11" data-name="Group 11" transform="translate(485.422 1236.792)">
      <path id="path829-4" class="cls-1" d="M291.934-702.081H263.391L259.463-688.7H233.852l30.479-81.092h27.326L322.135-688.7H295.916Zm-5.255-17.535-8.961-29.151-8.906,29.151Z" transform="translate(-62.634 -28.795)"/>
      <path id="path829-4-7" class="cls-2" d="M280.658-713.357H252.115l-3.927,13.386H222.577l30.479-81.092h27.326l30.479,81.092H284.64ZM275.4-730.892l-8.961-29.151-8.906,29.151Z" transform="translate(-57.996 -24.157)"/>
      <path id="path829-4-7-7" class="cls-3" d="M269.382-724.632H240.839l-3.927,13.386H211.3l30.479-81.092h27.326l30.479,81.092H273.364Zm-5.255-17.535-8.961-29.151-8.906,29.151Z" transform="translate(-53.358 -19.519)"/>
      <path id="path829-4-7-7-6" class="cls-4" d="M258.106-735.908H229.563l-3.927,13.386H200.025L230.5-803.614H257.83l30.479,81.092H262.089Zm-5.255-17.535-8.961-29.151-8.906,29.151Z" transform="translate(-48.72 -14.881)"/>
      <path id="path829-4-7-7-6-0" class="cls-5" d="M246.83-747.184H218.287L214.36-733.8H188.749l30.479-81.092h27.326L277.032-733.8H250.813Zm-5.255-17.535-8.961-29.151-8.906,29.151Z" transform="translate(-44.082 -10.243)"/>
      <path id="path829-4-7-7-6-0-9" class="cls-6" d="M235.554-758.46H207.011l-3.927,13.386H177.473l30.479-81.092h27.326l30.479,81.092H239.536ZM230.3-776l-8.961-29.151L212.432-776Z" transform="translate(-39.444 -5.605)"/>
      <path id="path829-5" class="cls-7" d="M224.278-769.736H195.735l-3.927,13.386H166.2l30.479-81.092H224L254.48-756.35H228.261Zm-5.255-17.535-8.961-29.151-8.906,29.151Z" transform="translate(-34.806 -0.966)"/>
    </g>
    <g id="Group_12" data-name="Group 12" transform="translate(322.422 1237.792)">
      <path id="path833-9" class="cls-1" d="M727.432-722.794l21.96,6.638a40.493,40.493,0,0,1-6.97,15.433,30.2,30.2,0,0,1-11.838,9.348q-7.025,3.153-17.922,3.153-13.22,0-21.628-3.817-8.353-3.872-14.437-13.552t-6.085-24.781q0-20.135,10.676-30.921,10.731-10.842,30.313-10.842,15.322,0,24.062,6.2,8.8,6.2,13.054,19.028l-22.126,4.923a18.952,18.952,0,0,0-2.434-5.421,14.415,14.415,0,0,0-5.144-4.425,14.779,14.779,0,0,0-6.8-1.549,14.71,14.71,0,0,0-13.054,6.859q-3.429,5.089-3.43,15.986,0,13.5,4.093,18.531,4.093,4.978,11.506,4.978,7.191,0,10.842-4.038,3.706-4.038,5.366-11.727Z" transform="translate(-242.244 -27.829)"/>
      <path id="path833-9-0" class="cls-2" d="M716.156-734.07l21.96,6.638A40.493,40.493,0,0,1,731.147-712a30.2,30.2,0,0,1-11.837,9.348q-7.025,3.153-17.922,3.153-13.22,0-21.628-3.817-8.353-3.872-14.437-13.552t-6.085-24.781q0-20.135,10.676-30.921,10.731-10.842,30.313-10.842,15.322,0,24.062,6.2,8.8,6.2,13.054,19.028l-22.126,4.923a18.951,18.951,0,0,0-2.434-5.421,14.416,14.416,0,0,0-5.144-4.425,14.779,14.779,0,0,0-6.8-1.549A14.71,14.71,0,0,0,687.78-757.8q-3.43,5.089-3.43,15.986,0,13.5,4.093,18.531,4.093,4.978,11.506,4.978,7.191,0,10.842-4.038,3.706-4.038,5.366-11.727Z" transform="translate(-237.606 -23.191)"/>
      <path id="path833-9-0-8" class="cls-3" d="M704.88-745.346l21.96,6.638a40.492,40.492,0,0,1-6.97,15.433,30.2,30.2,0,0,1-11.837,9.348q-7.025,3.153-17.922,3.153-13.22,0-21.628-3.817-8.353-3.872-14.437-13.552t-6.085-24.781q0-20.135,10.676-30.921,10.731-10.842,30.313-10.842,15.322,0,24.062,6.2,8.8,6.2,13.054,19.029l-22.126,4.923a18.954,18.954,0,0,0-2.434-5.421,14.416,14.416,0,0,0-5.144-4.425,14.779,14.779,0,0,0-6.8-1.549,14.71,14.71,0,0,0-13.054,6.859q-3.429,5.089-3.43,15.986,0,13.5,4.093,18.531,4.093,4.978,11.506,4.978,7.191,0,10.842-4.038Q703.221-737.658,704.88-745.346Z" transform="translate(-232.968 -18.552)"/>
      <path id="path833-9-0-8-4" class="cls-4" d="M693.6-756.622l21.96,6.638a40.494,40.494,0,0,1-6.97,15.433,30.2,30.2,0,0,1-11.837,9.348q-7.025,3.153-17.922,3.153-13.22,0-21.628-3.817-8.353-3.872-14.437-13.552T636.685-764.2q0-20.135,10.676-30.921,10.731-10.842,30.313-10.842,15.322,0,24.062,6.2,8.8,6.2,13.054,19.028l-22.126,4.923a18.954,18.954,0,0,0-2.434-5.421,14.416,14.416,0,0,0-5.144-4.425,14.779,14.779,0,0,0-6.8-1.549,14.71,14.71,0,0,0-13.054,6.859q-3.429,5.089-3.43,15.986,0,13.5,4.093,18.531,4.093,4.978,11.506,4.978,7.191,0,10.842-4.038,3.706-4.038,5.366-11.727Z" transform="translate(-228.33 -13.914)"/>
      <path id="path833-9-0-8-4-0" class="cls-5" d="M682.328-767.9l21.96,6.638a40.494,40.494,0,0,1-6.97,15.433,30.2,30.2,0,0,1-11.838,9.348q-7.025,3.153-17.922,3.153-13.22,0-21.628-3.817-8.353-3.872-14.437-13.552t-6.085-24.781q0-20.135,10.676-30.921Q646.816-817.24,666.4-817.24q15.322,0,24.062,6.2,8.8,6.2,13.054,19.028l-22.126,4.923a18.954,18.954,0,0,0-2.434-5.421,14.416,14.416,0,0,0-5.144-4.425,14.779,14.779,0,0,0-6.8-1.549,14.71,14.71,0,0,0-13.054,6.859q-3.43,5.089-3.43,15.986,0,13.5,4.093,18.531,4.093,4.978,11.506,4.978,7.191,0,10.842-4.038,3.706-4.038,5.366-11.727Z" transform="translate(-223.692 -9.276)"/>
      <path id="path833-9-0-8-4-0-0" class="cls-6" d="M671.052-779.174l21.96,6.638a40.493,40.493,0,0,1-6.97,15.433,30.2,30.2,0,0,1-11.837,9.348q-7.025,3.153-17.922,3.153-13.22,0-21.628-3.817-8.353-3.872-14.437-13.552t-6.085-24.781q0-20.135,10.676-30.921,10.731-10.842,30.313-10.842,15.322,0,24.062,6.2,8.8,6.2,13.054,19.029l-22.126,4.923a18.954,18.954,0,0,0-2.434-5.421,14.415,14.415,0,0,0-5.144-4.425,14.779,14.779,0,0,0-6.8-1.549,14.71,14.71,0,0,0-13.054,6.859q-3.43,5.089-3.43,15.986,0,13.5,4.093,18.531,4.093,4.978,11.506,4.978,7.191,0,10.842-4.038,3.706-4.038,5.366-11.727Z" transform="translate(-219.054 -4.638)"/>
      <path id="path833-5" class="cls-7" d="M659.776-790.45l21.96,6.638a40.493,40.493,0,0,1-6.97,15.433,30.2,30.2,0,0,1-11.838,9.348q-7.025,3.153-17.922,3.153-13.22,0-21.628-3.817-8.353-3.872-14.437-13.552t-6.085-24.781q0-20.135,10.676-30.921,10.731-10.842,30.313-10.842,15.322,0,24.062,6.2,8.8,6.2,13.054,19.028l-22.126,4.923a18.954,18.954,0,0,0-2.434-5.421,14.415,14.415,0,0,0-5.144-4.425,14.778,14.778,0,0,0-6.8-1.549,14.71,14.71,0,0,0-13.054,6.859q-3.43,5.089-3.43,15.986,0,13.5,4.093,18.531,4.093,4.978,11.506,4.978,7.191,0,10.842-4.038,3.706-4.038,5.366-11.727Z" transform="translate(-214.416 0)"/>
    </g>
    <g id="Group_13" data-name="Group 13" transform="translate(176.422 903.792)">
      <path id="path867-4" class="cls-1" d="M1071.6-200.068h76.169v20.024h-25.556v61.068h-25.058v-61.068H1071.6Z" transform="translate(-407.222 -263.135)"/>
      <path id="path867-4-7" class="cls-2" d="M1060.32-211.344h76.169v20.024h-25.556v61.068h-25.058V-191.32H1060.32Z" transform="translate(-402.582 -258.497)"/>
      <path id="path867-4-7-7" class="cls-3" d="M1049.05-222.62h76.169V-202.6h-25.556v61.068h-25.058V-202.6H1049.05Z" transform="translate(-397.947 -253.859)"/>
      <path id="path867-4-7-7-0" class="cls-4" d="M1037.77-233.9h76.169v20.024h-25.556V-152.8h-25.058v-61.068H1037.77Z" transform="translate(-393.307 -249.221)"/>
      <path id="path867-4-7-7-0-7" class="cls-5" d="M1026.5-245.172h76.169v20.024h-25.556v61.068h-25.058v-61.068H1026.5Z" transform="translate(-388.671 -244.583)"/>
      <path id="path867-4-7-7-0-7-3" class="cls-6" d="M1015.22-256.448h76.169v20.024h-25.556v61.068h-25.058v-61.068H1015.22Z" transform="translate(-384.031 -239.945)"/>
      <path id="path867-1" class="cls-7" d="M1003.94-267.724h76.169V-247.7h-25.556v61.068H1029.5V-247.7H1003.94Z" transform="translate(-379.392 -235.306)"/>
    </g>
    <g id="Group_14" data-name="Group 14" transform="translate(-155.578 1044.792)">
      <path id="path865-2" class="cls-1" d="M870.512-146.77l23.841-1.494q.774,5.808,3.153,8.85,3.872,4.923,11.063,4.923,5.366,0,8.242-2.489a7.6,7.6,0,0,0,2.932-5.863,7.444,7.444,0,0,0-2.766-5.642q-2.766-2.489-12.833-4.7-16.484-3.706-23.509-9.846a19.8,19.8,0,0,1-7.08-15.654,21.246,21.246,0,0,1,3.6-11.782,23.991,23.991,0,0,1,10.9-8.74q7.3-3.208,19.969-3.208,15.544,0,23.675,5.808,8.187,5.753,9.736,18.365l-23.62,1.383q-.94-5.476-3.983-7.965-2.987-2.489-8.3-2.489-4.37,0-6.582,1.881a5.6,5.6,0,0,0-2.213,4.48,4.516,4.516,0,0,0,1.825,3.485q1.77,1.6,8.408,2.987,16.429,3.54,23.509,7.191,7.136,3.6,10.344,8.961a22.643,22.643,0,0,1,3.264,12,25.709,25.709,0,0,1-4.315,14.382,27.172,27.172,0,0,1-12.059,10.012q-7.744,3.374-19.526,3.374-20.688,0-28.653-7.965t-9.016-20.245Z" transform="translate(-324.509 -262.169)"/>
      <path id="path865-2-7" class="cls-2" d="M859.236-158.046l23.841-1.494q.774,5.808,3.153,8.85,3.872,4.923,11.063,4.923,5.366,0,8.242-2.489a7.6,7.6,0,0,0,2.932-5.863,7.444,7.444,0,0,0-2.766-5.642q-2.766-2.489-12.833-4.7-16.484-3.706-23.509-9.846a19.8,19.8,0,0,1-7.08-15.654,21.246,21.246,0,0,1,3.6-11.782,23.991,23.991,0,0,1,10.9-8.74q7.3-3.208,19.969-3.208,15.544,0,23.675,5.808,8.187,5.753,9.736,18.365l-23.62,1.383q-.94-5.476-3.983-7.965-2.987-2.489-8.3-2.489-4.37,0-6.582,1.881a5.6,5.6,0,0,0-2.213,4.48,4.515,4.515,0,0,0,1.825,3.485q1.77,1.6,8.408,2.987,16.429,3.54,23.509,7.191,7.136,3.6,10.344,8.961a22.642,22.642,0,0,1,3.264,12,25.71,25.71,0,0,1-4.315,14.382,27.172,27.172,0,0,1-12.059,10.012q-7.744,3.374-19.526,3.374-20.688,0-28.653-7.965T859.236-158.046Z" transform="translate(-319.871 -257.531)"/>
      <path id="path865-2-7-7" class="cls-3" d="M847.961-169.322l23.841-1.494q.774,5.808,3.153,8.85,3.872,4.923,11.063,4.923,5.366,0,8.242-2.489a7.6,7.6,0,0,0,2.932-5.863,7.443,7.443,0,0,0-2.766-5.642q-2.766-2.489-12.833-4.7-16.484-3.706-23.509-9.846A19.8,19.8,0,0,1,851-201.239a21.245,21.245,0,0,1,3.6-11.782,23.99,23.99,0,0,1,10.9-8.74q7.3-3.208,19.969-3.208,15.544,0,23.675,5.808,8.187,5.753,9.735,18.365l-23.62,1.383q-.94-5.476-3.983-7.965-2.987-2.489-8.3-2.489-4.37,0-6.583,1.881a5.6,5.6,0,0,0-2.213,4.48,4.516,4.516,0,0,0,1.825,3.485q1.77,1.6,8.408,2.987,16.429,3.54,23.509,7.191,7.136,3.6,10.344,8.961a22.642,22.642,0,0,1,3.264,12,25.71,25.71,0,0,1-4.315,14.382,27.172,27.172,0,0,1-12.059,10.012q-7.744,3.374-19.526,3.374-20.688,0-28.653-7.965t-9.016-20.245Z" transform="translate(-315.234 -252.893)"/>
      <path id="path865-2-7-7-6" class="cls-4" d="M836.685-180.6l23.841-1.494q.774,5.808,3.153,8.85,3.872,4.923,11.063,4.923,5.366,0,8.242-2.489a7.6,7.6,0,0,0,2.932-5.863,7.444,7.444,0,0,0-2.766-5.642q-2.766-2.489-12.833-4.7-16.484-3.706-23.509-9.846a19.8,19.8,0,0,1-7.08-15.654,21.246,21.246,0,0,1,3.6-11.782,23.991,23.991,0,0,1,10.9-8.74q7.3-3.208,19.969-3.208,15.544,0,23.675,5.808,8.187,5.753,9.736,18.365l-23.62,1.383q-.94-5.476-3.983-7.965-2.987-2.489-8.3-2.489-4.37,0-6.583,1.881a5.6,5.6,0,0,0-2.213,4.48,4.516,4.516,0,0,0,1.825,3.485q1.77,1.6,8.408,2.987,16.429,3.54,23.509,7.191,7.136,3.6,10.344,8.961a22.643,22.643,0,0,1,3.264,12,25.709,25.709,0,0,1-4.315,14.382,27.172,27.172,0,0,1-12.059,10.012q-7.744,3.374-19.526,3.374-20.688,0-28.653-7.965T836.685-180.6Z" transform="translate(-310.595 -248.255)"/>
      <path id="path865-2-7-7-6-4" class="cls-5" d="M825.409-191.874l23.841-1.494q.774,5.808,3.153,8.85,3.872,4.923,11.063,4.923,5.366,0,8.242-2.489a7.6,7.6,0,0,0,2.932-5.863,7.443,7.443,0,0,0-2.766-5.642q-2.766-2.489-12.833-4.7-16.484-3.706-23.509-9.846a19.8,19.8,0,0,1-7.08-15.654,21.245,21.245,0,0,1,3.6-11.782,23.99,23.99,0,0,1,10.9-8.74q7.3-3.208,19.969-3.208,15.544,0,23.675,5.808,8.187,5.753,9.735,18.365l-23.62,1.383q-.94-5.476-3.983-7.965-2.987-2.489-8.3-2.489-4.37,0-6.583,1.881a5.6,5.6,0,0,0-2.213,4.48,4.516,4.516,0,0,0,1.825,3.485q1.77,1.6,8.408,2.987,16.429,3.54,23.509,7.191,7.136,3.6,10.344,8.961a22.644,22.644,0,0,1,3.264,12,25.71,25.71,0,0,1-4.315,14.382,27.172,27.172,0,0,1-12.059,10.012q-7.744,3.374-19.526,3.374-20.688,0-28.653-7.965t-9.016-20.245Z" transform="translate(-305.957 -243.617)"/>
      <path id="path865-2-7-7-6-4-8" class="cls-6" d="M814.133-203.15l23.841-1.494q.775,5.808,3.153,8.85Q845-190.87,852.19-190.87q5.366,0,8.242-2.489a7.6,7.6,0,0,0,2.932-5.863,7.444,7.444,0,0,0-2.766-5.642q-2.766-2.489-12.833-4.7-16.484-3.706-23.509-9.846a19.8,19.8,0,0,1-7.08-15.654,21.245,21.245,0,0,1,3.6-11.782,23.99,23.99,0,0,1,10.9-8.74q7.3-3.208,19.969-3.208,15.544,0,23.675,5.808,8.187,5.753,9.735,18.365l-23.62,1.383q-.94-5.476-3.983-7.965-2.987-2.489-8.3-2.489-4.37,0-6.583,1.881a5.6,5.6,0,0,0-2.213,4.48,4.516,4.516,0,0,0,1.826,3.485q1.77,1.6,8.408,2.987,16.429,3.54,23.509,7.191,7.136,3.6,10.344,8.961a22.642,22.642,0,0,1,3.264,12,25.71,25.71,0,0,1-4.314,14.382,27.173,27.173,0,0,1-12.059,10.012q-7.744,3.374-19.526,3.374-20.688,0-28.653-7.965t-9.016-20.245Z" transform="translate(-301.319 -238.978)"/>
      <path id="path865-8" class="cls-7" d="M802.857-214.426l23.841-1.494q.774,5.808,3.153,8.85,3.872,4.923,11.063,4.923,5.366,0,8.242-2.489a7.6,7.6,0,0,0,2.932-5.863,7.444,7.444,0,0,0-2.766-5.642q-2.766-2.489-12.833-4.7Q820-224.548,812.98-230.688a19.8,19.8,0,0,1-7.08-15.654,21.246,21.246,0,0,1,3.6-11.782,23.991,23.991,0,0,1,10.9-8.74q7.3-3.208,19.969-3.208,15.544,0,23.675,5.808,8.187,5.753,9.736,18.365l-23.62,1.383q-.94-5.476-3.983-7.965-2.987-2.489-8.3-2.489-4.37,0-6.582,1.881a5.6,5.6,0,0,0-2.213,4.481,4.516,4.516,0,0,0,1.825,3.485q1.77,1.6,8.408,2.987,16.429,3.54,23.509,7.191,7.136,3.6,10.344,8.961a22.643,22.643,0,0,1,3.264,12,25.71,25.71,0,0,1-4.315,14.382,27.173,27.173,0,0,1-12.059,10.012q-7.744,3.374-19.526,3.374-20.688,0-28.653-7.965t-9.016-20.245Z" transform="translate(-296.681 -234.34)"/>
    </g>
    <g id="Group_15" data-name="Group 15" transform="translate(356.422 1208.792)">
      <path id="path843-1" class="cls-1" d="M149.233-481.753h25.058v28.377h27.381v-28.377h25.169v81.092H201.672v-32.8H174.291v32.8H149.233Z" transform="translate(-27.828 -147.271)"/>
      <path id="path843-1-9" class="cls-2" d="M137.958-493.029h25.058v28.377H190.4v-28.377h25.169v81.092H190.4v-32.8H163.016v32.8H137.958Z" transform="translate(-23.191 -142.633)"/>
      <path id="path843-1-9-2" class="cls-3" d="M126.682-504.3H151.74v28.377h27.381V-504.3h25.169v81.092H179.121v-32.8H151.74v32.8H126.682Z" transform="translate(-18.553 -137.995)"/>
      <path id="path843-1-9-2-8" class="cls-4" d="M115.406-515.58h25.058V-487.2h27.381V-515.58h25.169v81.092H167.845v-32.8H140.464v32.8H115.406Z" transform="translate(-13.914 -133.357)"/>
      <path id="path843-1-9-2-8-0" class="cls-5" d="M104.13-526.856h25.058v28.377h27.381v-28.377h25.169v81.092H156.569v-32.8H129.188v32.8H104.13Z" transform="translate(-9.276 -128.719)"/>
      <path id="path843-1-9-2-8-0-5" class="cls-6" d="M92.854-538.132h25.058v28.377h27.381v-28.377h25.169v81.092H145.293v-32.8H117.912v32.8H92.854Z" transform="translate(-4.638 -124.081)"/>
      <path id="path843-7" class="cls-7" d="M81.578-549.408h25.058v28.377h27.381v-28.377h25.169v81.092H134.017v-32.8H106.636v32.8H81.578Z" transform="translate(0 -119.442)"/>
    </g>
    <g id="Group_16" data-name="Group 16" transform="translate(-396.578 1209.792)">
      <path id="path857-4" class="cls-1" d="M1588.51-442.117q0-19.858,11.063-30.921t30.811-11.063q20.246,0,31.2,10.9,10.952,10.842,10.952,30.423,0,14.216-4.812,23.343a34.107,34.107,0,0,1-13.829,14.161q-9.016,5.034-22.513,5.034-13.718,0-22.735-4.37a34.229,34.229,0,0,1-14.548-13.829q-5.587-9.459-5.587-23.675Zm25.058.11q0,12.28,4.536,17.646Q1622.695-419,1630.55-419q8.076,0,12.5-5.255t4.425-18.863q0-11.45-4.646-16.705-4.591-5.31-12.5-5.31a15.222,15.222,0,0,0-12.169,5.366q-4.591,5.366-4.591,17.756Z" transform="translate(-619.841 -146.305)"/>
      <path id="path857-4-4" class="cls-2" d="M1577.24-453.393q0-19.858,11.063-30.921t30.811-11.063q20.245,0,31.2,10.9,10.952,10.842,10.953,30.423,0,14.216-4.812,23.343a34.106,34.106,0,0,1-13.829,14.161q-9.016,5.034-22.513,5.034-13.718,0-22.734-4.37a34.23,34.23,0,0,1-14.548-13.829q-5.587-9.459-5.587-23.675Zm25.058.11q0,12.28,4.536,17.646,4.591,5.366,12.446,5.366,8.076,0,12.5-5.255t4.425-18.863q0-11.45-4.646-16.705-4.591-5.31-12.5-5.31a15.222,15.222,0,0,0-12.169,5.366q-4.591,5.366-4.591,17.756Z" transform="translate(-615.205 -141.667)"/>
      <path id="path857-4-4-3" class="cls-3" d="M1565.96-464.669q0-19.858,11.063-30.921t30.811-11.063q20.245,0,31.2,10.9,10.952,10.842,10.953,30.423,0,14.216-4.812,23.343a34.106,34.106,0,0,1-13.829,14.161q-9.016,5.034-22.513,5.034-13.718,0-22.735-4.37a34.229,34.229,0,0,1-14.548-13.829q-5.587-9.459-5.587-23.675Zm25.058.11q0,12.28,4.536,17.646,4.591,5.366,12.446,5.366,8.076,0,12.5-5.255t4.425-18.863q0-11.45-4.646-16.705-4.591-5.31-12.5-5.31a15.222,15.222,0,0,0-12.169,5.366q-4.591,5.366-4.591,17.756Z" transform="translate(-610.565 -137.029)"/>
      <path id="path857-4-4-3-2" class="cls-4" d="M1554.68-475.945q0-19.858,11.063-30.921t30.811-11.063q20.245,0,31.2,10.9,10.953,10.842,10.953,30.423,0,14.216-4.812,23.343a34.106,34.106,0,0,1-13.829,14.161q-9.016,5.034-22.513,5.034-13.718,0-22.735-4.37a34.23,34.23,0,0,1-14.548-13.829q-5.587-9.459-5.587-23.675Zm25.058.11q0,12.28,4.536,17.646,4.591,5.366,12.446,5.366,8.076,0,12.5-5.255t4.425-18.863q0-11.45-4.646-16.705-4.591-5.31-12.5-5.31a15.222,15.222,0,0,0-12.169,5.366q-4.591,5.366-4.591,17.756Z" transform="translate(-605.926 -132.39)"/>
      <path id="path857-4-4-3-2-7" class="cls-5" d="M1543.41-487.221q0-19.858,11.063-30.921t30.811-11.063q20.246,0,31.2,10.9,10.952,10.842,10.952,30.423,0,14.216-4.812,23.343a34.106,34.106,0,0,1-13.829,14.161q-9.016,5.034-22.513,5.034-13.718,0-22.734-4.37A34.229,34.229,0,0,1,1549-463.546q-5.587-9.459-5.587-23.675Zm25.058.11q0,12.28,4.536,17.646,4.591,5.366,12.446,5.366,8.076,0,12.5-5.255t4.425-18.863q0-11.45-4.647-16.705-4.591-5.31-12.5-5.31a15.223,15.223,0,0,0-12.169,5.366q-4.591,5.366-4.591,17.756Z" transform="translate(-601.29 -127.752)"/>
      <path id="path857-4-4-3-2-7-0" class="cls-6" d="M1532.13-498.5q0-19.858,11.063-30.921T1574-540.481q20.246,0,31.2,10.9,10.952,10.842,10.952,30.423,0,14.216-4.812,23.343a34.107,34.107,0,0,1-13.829,14.161q-9.016,5.034-22.513,5.034-13.718,0-22.735-4.37a34.229,34.229,0,0,1-14.548-13.829q-5.587-9.459-5.587-23.675Zm25.058.11q0,12.28,4.536,17.646,4.591,5.366,12.446,5.366,8.076,0,12.5-5.255t4.425-18.862q0-11.45-4.647-16.705-4.591-5.31-12.5-5.31a15.223,15.223,0,0,0-12.169,5.366Q1557.188-510.777,1557.188-498.387Z" transform="translate(-596.65 -123.114)"/>
      <path id="path857-5" class="cls-7" d="M1520.86-509.773q0-19.858,11.063-30.921t30.811-11.063q20.245,0,31.2,10.9,10.953,10.842,10.953,30.423,0,14.216-4.812,23.343a34.106,34.106,0,0,1-13.829,14.161q-9.016,5.034-22.513,5.034-13.718,0-22.735-4.37a34.229,34.229,0,0,1-14.548-13.829Q1520.86-495.557,1520.86-509.773Zm25.058.11q0,12.28,4.536,17.646,4.591,5.366,12.446,5.366,8.076,0,12.5-5.255t4.425-18.862q0-11.45-4.646-16.705-4.591-5.31-12.5-5.31a15.222,15.222,0,0,0-12.169,5.366Q1545.918-522.053,1545.918-509.663Z" transform="translate(-592.015 -118.476)"/>
    </g>
    <g id="Group_21" data-name="Group 21" transform="translate(-301.578 1209.792)">
      <path id="path857-4-2" data-name="path857-4" class="cls-1" d="M1588.51-442.117q0-19.858,11.063-30.921t30.811-11.063q20.246,0,31.2,10.9,10.952,10.842,10.952,30.423,0,14.216-4.812,23.343a34.107,34.107,0,0,1-13.829,14.161q-9.016,5.034-22.513,5.034-13.718,0-22.735-4.37a34.229,34.229,0,0,1-14.548-13.829q-5.587-9.459-5.587-23.675Zm25.058.11q0,12.28,4.536,17.646Q1622.695-419,1630.55-419q8.076,0,12.5-5.255t4.425-18.863q0-11.45-4.646-16.705-4.591-5.31-12.5-5.31a15.222,15.222,0,0,0-12.169,5.366q-4.591,5.366-4.591,17.756Z" transform="translate(-619.841 -146.305)"/>
      <path id="path857-4-4-2" data-name="path857-4-4" class="cls-2" d="M1577.24-453.393q0-19.858,11.063-30.921t30.811-11.063q20.245,0,31.2,10.9,10.952,10.842,10.953,30.423,0,14.216-4.812,23.343a34.106,34.106,0,0,1-13.829,14.161q-9.016,5.034-22.513,5.034-13.718,0-22.734-4.37a34.23,34.23,0,0,1-14.548-13.829q-5.587-9.459-5.587-23.675Zm25.058.11q0,12.28,4.536,17.646,4.591,5.366,12.446,5.366,8.076,0,12.5-5.255t4.425-18.863q0-11.45-4.646-16.705-4.591-5.31-12.5-5.31a15.222,15.222,0,0,0-12.169,5.366q-4.591,5.366-4.591,17.756Z" transform="translate(-615.205 -141.667)"/>
      <path id="path857-4-4-3-2-2" data-name="path857-4-4-3" class="cls-3" d="M1565.96-464.669q0-19.858,11.063-30.921t30.811-11.063q20.245,0,31.2,10.9,10.952,10.842,10.953,30.423,0,14.216-4.812,23.343a34.106,34.106,0,0,1-13.829,14.161q-9.016,5.034-22.513,5.034-13.718,0-22.735-4.37a34.229,34.229,0,0,1-14.548-13.829q-5.587-9.459-5.587-23.675Zm25.058.11q0,12.28,4.536,17.646,4.591,5.366,12.446,5.366,8.076,0,12.5-5.255t4.425-18.863q0-11.45-4.646-16.705-4.591-5.31-12.5-5.31a15.222,15.222,0,0,0-12.169,5.366q-4.591,5.366-4.591,17.756Z" transform="translate(-610.565 -137.029)"/>
      <path id="path857-4-4-3-2-3" data-name="path857-4-4-3-2" class="cls-4" d="M1554.68-475.945q0-19.858,11.063-30.921t30.811-11.063q20.245,0,31.2,10.9,10.953,10.842,10.953,30.423,0,14.216-4.812,23.343a34.106,34.106,0,0,1-13.829,14.161q-9.016,5.034-22.513,5.034-13.718,0-22.735-4.37a34.23,34.23,0,0,1-14.548-13.829q-5.587-9.459-5.587-23.675Zm25.058.11q0,12.28,4.536,17.646,4.591,5.366,12.446,5.366,8.076,0,12.5-5.255t4.425-18.863q0-11.45-4.646-16.705-4.591-5.31-12.5-5.31a15.222,15.222,0,0,0-12.169,5.366q-4.591,5.366-4.591,17.756Z" transform="translate(-605.926 -132.39)"/>
      <path id="path857-4-4-3-2-7-2" data-name="path857-4-4-3-2-7" class="cls-5" d="M1543.41-487.221q0-19.858,11.063-30.921t30.811-11.063q20.246,0,31.2,10.9,10.952,10.842,10.952,30.423,0,14.216-4.812,23.343a34.106,34.106,0,0,1-13.829,14.161q-9.016,5.034-22.513,5.034-13.718,0-22.734-4.37A34.229,34.229,0,0,1,1549-463.546q-5.587-9.459-5.587-23.675Zm25.058.11q0,12.28,4.536,17.646,4.591,5.366,12.446,5.366,8.076,0,12.5-5.255t4.425-18.863q0-11.45-4.647-16.705-4.591-5.31-12.5-5.31a15.223,15.223,0,0,0-12.169,5.366q-4.591,5.366-4.591,17.756Z" transform="translate(-601.29 -127.752)"/>
      <path id="path857-4-4-3-2-7-0-2" data-name="path857-4-4-3-2-7-0" class="cls-6" d="M1532.13-498.5q0-19.858,11.063-30.921T1574-540.481q20.246,0,31.2,10.9,10.952,10.842,10.952,30.423,0,14.216-4.812,23.343a34.107,34.107,0,0,1-13.829,14.161q-9.016,5.034-22.513,5.034-13.718,0-22.735-4.37a34.229,34.229,0,0,1-14.548-13.829q-5.587-9.459-5.587-23.675Zm25.058.11q0,12.28,4.536,17.646,4.591,5.366,12.446,5.366,8.076,0,12.5-5.255t4.425-18.862q0-11.45-4.647-16.705-4.591-5.31-12.5-5.31a15.223,15.223,0,0,0-12.169,5.366Q1557.188-510.777,1557.188-498.387Z" transform="translate(-596.65 -123.114)"/>
      <path id="path857-5-2" data-name="path857-5" class="cls-7" d="M1520.86-509.773q0-19.858,11.063-30.921t30.811-11.063q20.245,0,31.2,10.9,10.953,10.842,10.953,30.423,0,14.216-4.812,23.343a34.106,34.106,0,0,1-13.829,14.161q-9.016,5.034-22.513,5.034-13.718,0-22.735-4.37a34.229,34.229,0,0,1-14.548-13.829Q1520.86-495.557,1520.86-509.773Zm25.058.11q0,12.28,4.536,17.646,4.591,5.366,12.446,5.366,8.076,0,12.5-5.255t4.425-18.862q0-11.45-4.646-16.705-4.591-5.31-12.5-5.31a15.222,15.222,0,0,0-12.169,5.366Q1545.918-522.053,1545.918-509.663Z" transform="translate(-592.015 -118.476)"/>
    </g>
    <g id="Group_18" data-name="Group 18" transform="translate(96.422 1045.792)">
      <path id="path867-4-2" data-name="path867-4" class="cls-1" d="M1071.6-200.068h76.169v20.024h-25.556v61.068h-25.058v-61.068H1071.6Z" transform="translate(-407.222 -263.135)"/>
      <path id="path867-4-7-2" data-name="path867-4-7" class="cls-2" d="M1060.32-211.344h76.169v20.024h-25.556v61.068h-25.058V-191.32H1060.32Z" transform="translate(-402.582 -258.497)"/>
      <path id="path867-4-7-7-2" data-name="path867-4-7-7" class="cls-3" d="M1049.05-222.62h76.169V-202.6h-25.556v61.068h-25.058V-202.6H1049.05Z" transform="translate(-397.947 -253.859)"/>
      <path id="path867-4-7-7-0-2" data-name="path867-4-7-7-0" class="cls-4" d="M1037.77-233.9h76.169v20.024h-25.556V-152.8h-25.058v-61.068H1037.77Z" transform="translate(-393.307 -249.221)"/>
      <path id="path867-4-7-7-0-7-2" data-name="path867-4-7-7-0-7" class="cls-5" d="M1026.5-245.172h76.169v20.024h-25.556v61.068h-25.058v-61.068H1026.5Z" transform="translate(-388.671 -244.583)"/>
      <path id="path867-4-7-7-0-7-3-2" data-name="path867-4-7-7-0-7-3" class="cls-6" d="M1015.22-256.448h76.169v20.024h-25.556v61.068h-25.058v-61.068H1015.22Z" transform="translate(-384.031 -239.945)"/>
      <path id="path867-1-2" data-name="path867-1" class="cls-7" d="M1003.94-267.724h76.169V-247.7h-25.556v61.068H1029.5V-247.7H1003.94Z" transform="translate(-379.392 -235.306)"/>
    </g>
    <g id="Group_19" data-name="Group 19" transform="translate(165.422 1378.792)">
      <path id="path837-8-2" data-name="path837-8" class="cls-1" d="M1103.13-769.787h67.153v17.314h-42.04v12.888h39v16.539h-39v15.986H1171.5v18.365h-68.37Z" transform="translate(-420.191 -28.795)"/>
      <path id="path837-8-5-2" data-name="path837-8-5" class="cls-2" d="M1091.86-781.063h67.153v17.314h-42.04v12.889h39v16.539h-39v15.986h43.257v18.365h-68.37Z" transform="translate(-415.555 -24.157)"/>
      <path id="path837-8-5-0-2-2" data-name="path837-8-5-0" class="cls-3" d="M1080.58-792.339h67.153v17.314h-42.04v12.889h39V-745.6h-39v15.986h43.257v18.365h-68.37Z" transform="translate(-410.916 -19.519)"/>
      <path id="path837-8-5-0-2-3" data-name="path837-8-5-0-2" class="cls-4" d="M1069.31-803.615h67.153V-786.3h-42.04v12.889h39v16.539h-39v15.986h43.257v18.365h-68.37Z" transform="translate(-406.28 -14.88)"/>
      <path id="path837-8-5-0-2-4-2-2" data-name="path837-8-5-0-2-4" class="cls-5" d="M1058.03-814.891h67.153v17.314h-42.04v12.889h39v16.539h-39v15.986H1126.4V-733.8h-68.37Z" transform="translate(-401.64 -10.242)"/>
      <path id="path837-8-5-0-2-4-2-3" data-name="path837-8-5-0-2-4-2" class="cls-6" d="M1046.75-826.167H1113.9v17.314h-42.04v12.889h39v16.539h-39v15.986h43.257v18.365h-68.37Z" transform="translate(-397.001 -5.604)"/>
      <path id="path837-7-2" data-name="path837-7" class="cls-7" d="M1035.48-837.443h67.153v17.314h-42.04v12.888h39V-790.7h-39v15.986h43.257v18.365h-68.37Z" transform="translate(-392.365 -0.966)"/>
    </g>
    <g id="Group_20" data-name="Group 20" transform="translate(506.422 1042.792)">
      <path id="path863-3-2-2" data-name="path863-3" class="cls-1" d="M664.633-118.976v-81.092H706.4q11.616,0,17.756,1.991a18.859,18.859,0,0,1,9.9,7.412,22.264,22.264,0,0,1,3.761,13.11,22.731,22.731,0,0,1-2.876,11.672,22.568,22.568,0,0,1-7.91,7.91,30.3,30.3,0,0,1-8.8,3.208,24.97,24.97,0,0,1,6.527,2.987,24.676,24.676,0,0,1,3.983,4.259,31.182,31.182,0,0,1,3.54,5.034L744.4-118.975H716.076L702.69-143.757q-2.545-4.812-4.536-6.251a10.514,10.514,0,0,0-6.14-1.881H689.8v32.913ZM689.8-167.211h10.565A37.758,37.758,0,0,0,707-168.317a6.513,6.513,0,0,0,4.038-2.545,7.411,7.411,0,0,0,1.6-4.7,7.452,7.452,0,0,0-2.489-6.029q-2.489-2.1-9.348-2.1H689.8Z" transform="translate(-239.826 -263.135)"/>
      <path id="path863-3-2-3" data-name="path863-3-2" class="cls-2" d="M653.357-130.252v-81.092H695.12q11.616,0,17.756,1.991a18.859,18.859,0,0,1,9.9,7.412,22.264,22.264,0,0,1,3.762,13.11,22.731,22.731,0,0,1-2.876,11.672,22.568,22.568,0,0,1-7.91,7.91,30.3,30.3,0,0,1-8.8,3.208,24.972,24.972,0,0,1,6.527,2.987,24.676,24.676,0,0,1,3.983,4.259,31.173,31.173,0,0,1,3.54,5.034l12.114,23.509H704.8l-13.386-24.781q-2.545-4.812-4.536-6.251a10.514,10.514,0,0,0-6.14-1.881h-2.213v32.913Zm25.168-48.235h10.565a37.758,37.758,0,0,0,6.638-1.106,6.512,6.512,0,0,0,4.038-2.545,7.411,7.411,0,0,0,1.6-4.7,7.452,7.452,0,0,0-2.489-6.029q-2.489-2.1-9.348-2.1H678.526Z" transform="translate(-235.188 -258.497)"/>
      <path id="path863-3-2-4-2" data-name="path863-3-2-4" class="cls-3" d="M642.081-141.528V-222.62h41.763q11.616,0,17.756,1.991a18.859,18.859,0,0,1,9.9,7.412,22.264,22.264,0,0,1,3.762,13.11,22.731,22.731,0,0,1-2.876,11.672,22.568,22.568,0,0,1-7.91,7.91,30.3,30.3,0,0,1-8.8,3.208,24.967,24.967,0,0,1,6.527,2.987,24.674,24.674,0,0,1,3.983,4.259,31.173,31.173,0,0,1,3.54,5.034l12.114,23.509H693.524l-13.386-24.781q-2.545-4.812-4.536-6.251a10.514,10.514,0,0,0-6.14-1.881h-2.213v32.913Zm25.168-48.235h10.565a37.76,37.76,0,0,0,6.638-1.106,6.512,6.512,0,0,0,4.038-2.545,7.411,7.411,0,0,0,1.6-4.7,7.452,7.452,0,0,0-2.489-6.029q-2.489-2.1-9.348-2.1H667.25Z" transform="translate(-230.55 -253.859)"/>
      <path id="path863-3-2-4-9-2" data-name="path863-3-2-4-9" class="cls-4" d="M630.8-152.8V-233.9h41.763q11.616,0,17.756,1.991a18.859,18.859,0,0,1,9.9,7.412,22.264,22.264,0,0,1,3.761,13.11,22.731,22.731,0,0,1-2.876,11.672,22.568,22.568,0,0,1-7.91,7.91,30.3,30.3,0,0,1-8.8,3.208,24.968,24.968,0,0,1,6.527,2.987,24.674,24.674,0,0,1,3.983,4.259,31.177,31.177,0,0,1,3.54,5.034L710.57-152.8H682.248l-13.386-24.781q-2.545-4.812-4.536-6.251a10.514,10.514,0,0,0-6.14-1.881h-2.213V-152.8Zm25.169-48.235h10.565a37.757,37.757,0,0,0,6.638-1.106,6.513,6.513,0,0,0,4.038-2.545,7.411,7.411,0,0,0,1.6-4.7,7.452,7.452,0,0,0-2.489-6.029q-2.489-2.1-9.348-2.1H655.974Z" transform="translate(-225.911 -249.221)"/>
      <path id="path863-3-2-4-9-6-2-2" data-name="path863-3-2-4-9-6" class="cls-5" d="M619.529-164.079v-81.093h41.763q11.616,0,17.756,1.991a18.859,18.859,0,0,1,9.9,7.412,22.264,22.264,0,0,1,3.761,13.11,22.731,22.731,0,0,1-2.876,11.672,22.567,22.567,0,0,1-7.91,7.91,30.3,30.3,0,0,1-8.8,3.208,24.968,24.968,0,0,1,6.527,2.987,24.678,24.678,0,0,1,3.983,4.259,31.17,31.17,0,0,1,3.54,5.034l12.114,23.509H670.972l-13.386-24.781q-2.545-4.812-4.536-6.251a10.514,10.514,0,0,0-6.14-1.881H644.7v32.913ZM644.7-212.314h10.565a37.758,37.758,0,0,0,6.638-1.106,6.513,6.513,0,0,0,4.038-2.545,7.411,7.411,0,0,0,1.6-4.7,7.452,7.452,0,0,0-2.489-6.029q-2.489-2.1-9.348-2.1H644.7Z" transform="translate(-221.273 -244.583)"/>
      <path id="path863-3-2-4-9-6-2-3" data-name="path863-3-2-4-9-6-2" class="cls-6" d="M608.253-175.355v-81.092h41.763q11.616,0,17.756,1.991a18.859,18.859,0,0,1,9.9,7.412,22.264,22.264,0,0,1,3.761,13.11,22.731,22.731,0,0,1-2.876,11.672,22.567,22.567,0,0,1-7.91,7.91,30.3,30.3,0,0,1-8.8,3.208,24.964,24.964,0,0,1,6.527,2.987,24.678,24.678,0,0,1,3.983,4.259,31.171,31.171,0,0,1,3.54,5.034l12.114,23.509H659.7L646.31-200.136q-2.545-4.812-4.536-6.251a10.514,10.514,0,0,0-6.14-1.881h-2.213v32.913Zm25.169-48.235h10.565a37.759,37.759,0,0,0,6.638-1.106,6.513,6.513,0,0,0,4.038-2.545,7.411,7.411,0,0,0,1.6-4.7,7.452,7.452,0,0,0-2.489-6.029q-2.489-2.1-9.348-2.1H633.422Z" transform="translate(-216.635 -239.945)"/>
      <path id="path863-4-2" data-name="path863-4" class="cls-7" d="M596.977-186.631v-81.092H638.74q11.616,0,17.756,1.991a18.86,18.86,0,0,1,9.9,7.412,22.264,22.264,0,0,1,3.761,13.11,22.731,22.731,0,0,1-2.876,11.672,22.567,22.567,0,0,1-7.91,7.91,30.294,30.294,0,0,1-8.8,3.208,24.968,24.968,0,0,1,6.527,2.987,24.68,24.68,0,0,1,3.983,4.259,31.185,31.185,0,0,1,3.54,5.034l12.114,23.509H648.42l-13.386-24.781q-2.544-4.812-4.536-6.251a10.514,10.514,0,0,0-6.14-1.881h-2.213v32.913Zm25.168-48.235h10.565a37.759,37.759,0,0,0,6.638-1.106,6.512,6.512,0,0,0,4.038-2.545,7.411,7.411,0,0,0,1.6-4.7,7.452,7.452,0,0,0-2.489-6.029q-2.489-2.1-9.348-2.1H622.146Z" transform="translate(-211.997 -235.307)"/>
    </g>
  </g>
</svg>
